<svg width="266" height="31" viewBox="0 0 266 31" fill="none" xmlns="http://www.w3.org/2000/svg">
<path d="M10.68 30.688C10.232 30.688 9.784 30.624 9.336 30.496C8.888 30.432 8.44 30.368 7.992 30.304C6.84 29.984 6.04 29.312 5.592 28.288C5.016 27.008 5.016 25.472 5.592 23.68C6.232 21.824 7.256 19.456 8.664 16.576C8.92 16.064 9.176 15.488 9.432 14.848C9.752 14.208 10.04 13.6 10.296 13.024C9.464 13.344 8.568 13.888 7.608 14.656C6.712 15.36 5.784 16.096 4.824 16.864C4.184 17.312 3.48 17.504 2.712 17.44C1.88 17.312 1.208 16.96 0.696 16.384C0.248 15.744 0.0879999 15.04 0.216 14.272C0.28 13.504 0.6 12.832 1.176 12.256C2.072 11.616 3 10.912 3.96 10.144C4.984 9.376 6.008 8.736 7.032 8.224C9.656 6.88 12.056 6.528 14.232 7.168C15.256 7.36 16.024 8 16.536 9.088C17.048 10.112 17.016 11.392 16.44 12.928C15.928 14.464 15.032 16.544 13.752 19.168C13.432 19.936 13.08 20.704 12.696 21.472C12.376 22.24 12.056 22.976 11.736 23.68C11.672 23.936 11.576 24.16 11.448 24.352C11.384 24.544 11.32 24.736 11.256 24.928C12.6 24.736 14.552 24.064 17.112 22.912C19.736 21.696 23.256 19.328 27.672 15.808C30.04 13.952 32.184 12.16 34.104 10.432C36.024 8.64 37.56 7.168 38.712 6.016C39.864 4.864 40.44 4.288 40.44 4.288C41.208 3.392 42.136 3.104 43.224 3.424C43.736 3.488 44.152 3.712 44.472 4.096C44.792 4.416 45.048 4.736 45.24 5.056C45.688 5.952 45.72 7.008 45.336 8.224C45.016 9.376 44.312 11.264 43.224 13.888C42.84 14.72 42.456 15.552 42.072 16.384C41.752 17.216 41.432 17.984 41.112 18.688C41.048 18.944 40.984 19.168 40.92 19.36C40.92 19.488 40.888 19.616 40.824 19.744C42.04 19.552 43.32 19.04 44.664 18.208C46.072 17.312 47.416 16.32 48.696 15.232C50.04 14.144 51.16 13.216 52.056 12.448C52.696 11.872 53.4 11.616 54.168 11.68C54.936 11.744 55.608 12.064 56.184 12.64C56.696 13.28 56.92 13.984 56.856 14.752C56.856 15.52 56.536 16.192 55.896 16.768C53.912 18.496 51.864 20.128 49.752 21.664C47.704 23.2 45.624 24.352 43.512 25.12C41.464 25.824 39.384 25.92 37.272 25.408C36.248 24.96 35.512 24.32 35.064 23.488C34.68 22.592 34.552 21.6 34.68 20.512C34.872 19.424 35.256 18.08 35.832 16.48C35.128 17.12 34.392 17.728 33.624 18.304C32.92 18.88 32.152 19.52 31.32 20.224C22.488 27.2 15.608 30.688 10.68 30.688ZM75.9818 25.216C75.2138 25.216 74.5738 24.992 74.0618 24.544C73.0378 23.712 72.7498 22.656 73.1978 21.376C73.1978 21.312 73.4218 20.544 73.8698 19.072C74.3818 17.6 74.9578 15.936 75.5978 14.08C75.9178 12.992 76.2058 12.064 76.4618 11.296C76.7178 10.464 76.9418 9.728 77.1338 9.088C75.4058 9.728 73.2938 10.528 70.7978 11.488C68.3018 12.384 65.6778 13.344 62.9258 14.368C60.2378 15.392 57.6138 16.384 55.0538 17.344C54.3498 17.6 53.6457 17.568 52.9417 17.248C52.1737 16.864 51.6297 16.288 51.3097 15.52C51.0537 14.816 51.1177 14.112 51.5017 13.408C51.8217 12.64 52.3657 12.096 53.1337 11.776C56.0137 10.752 58.9898 9.696 62.0618 8.608C65.1338 7.456 67.9818 6.4 70.6058 5.44C73.2298 4.416 75.3738 3.584 77.0378 2.944C78.7018 2.304 79.5338 1.984 79.5338 1.984C79.8538 1.92 80.1738 1.888 80.4938 1.888C80.8138 1.824 81.1018 1.856 81.3578 1.984C82.2538 2.112 82.8938 2.624 83.2778 3.52C83.5978 4.032 83.7258 4.704 83.6618 5.536C83.6618 6.304 83.5018 7.424 83.1818 8.896C82.9898 9.728 82.7338 10.656 82.4138 11.68C82.1578 12.64 81.8058 13.76 81.3578 15.04C81.2938 15.296 81.2298 15.52 81.1658 15.712C81.1018 15.904 81.0378 16.128 80.9738 16.384C83.5338 14.976 86.6698 13.504 90.3818 11.968C91.0858 11.648 91.7898 11.648 92.4938 11.968C93.2618 12.224 93.7738 12.704 94.0298 13.408C94.4138 14.112 94.4458 14.848 94.1258 15.616C93.8058 16.384 93.2938 16.928 92.5898 17.248C89.7098 18.528 87.1178 19.744 84.8138 20.896C82.5738 22.048 80.7818 22.976 79.4377 23.68C78.0938 24.384 77.4218 24.736 77.4218 24.736C77.0378 25.056 76.5578 25.216 75.9818 25.216ZM113.294 25.216C112.526 25.216 111.886 24.992 111.374 24.544C110.35 23.712 110.062 22.656 110.51 21.376C110.51 21.312 110.734 20.544 111.182 19.072C111.694 17.6 112.27 15.936 112.91 14.08C113.23 12.992 113.518 12.064 113.774 11.296C114.03 10.464 114.254 9.728 114.446 9.088C112.718 9.728 110.606 10.528 108.11 11.488C105.614 12.384 102.99 13.344 100.238 14.368C97.5503 15.392 94.9263 16.384 92.3663 17.344C91.6623 17.6 90.9582 17.568 90.2542 17.248C89.4862 16.864 88.9422 16.288 88.6222 15.52C88.3662 14.816 88.4302 14.112 88.8142 13.408C89.1342 12.64 89.6782 12.096 90.4462 11.776C93.3262 10.752 96.3023 9.696 99.3743 8.608C102.446 7.456 105.294 6.4 107.918 5.44C110.542 4.416 112.686 3.584 114.35 2.944C116.014 2.304 116.846 1.984 116.846 1.984C117.166 1.92 117.486 1.888 117.806 1.888C118.126 1.824 118.414 1.856 118.67 1.984C119.566 2.112 120.206 2.624 120.59 3.52C120.91 4.032 121.038 4.704 120.974 5.536C120.974 6.304 120.814 7.424 120.494 8.896C120.302 9.728 120.046 10.656 119.726 11.68C119.47 12.64 119.118 13.76 118.67 15.04C118.606 15.296 118.542 15.52 118.478 15.712C118.414 15.904 118.35 16.128 118.286 16.384C120.846 14.976 123.982 13.504 127.694 11.968C128.398 11.648 129.102 11.648 129.806 11.968C130.574 12.224 131.086 12.704 131.342 13.408C131.726 14.112 131.758 14.848 131.438 15.616C131.118 16.384 130.606 16.928 129.902 17.248C127.022 18.528 124.43 19.744 122.126 20.896C119.886 22.048 118.094 22.976 116.75 23.68C115.406 24.384 114.734 24.736 114.734 24.736C114.35 25.056 113.87 25.216 113.294 25.216ZM141.487 22.336C141.167 22.336 140.911 22.304 140.719 22.24C139.695 21.984 138.959 21.6 138.511 21.088C138.127 20.512 137.871 20.064 137.743 19.744C137.295 18.336 137.455 16.896 138.223 15.424C138.991 13.888 139.983 12.288 141.199 10.624C141.583 10.112 141.935 9.568 142.255 8.992C142.639 8.352 142.959 7.808 143.215 7.36C143.279 7.296 143.375 7.168 143.503 6.976C143.119 7.104 142.639 7.296 142.063 7.552C141.551 7.808 140.943 8.192 140.239 8.704C139.087 9.408 137.871 10.336 136.591 11.488C135.311 12.576 133.999 13.728 132.655 14.944C132.335 15.2 131.983 15.488 131.599 15.808C131.279 16.128 130.959 16.448 130.639 16.768C130.063 17.28 129.391 17.536 128.623 17.536C127.791 17.472 127.119 17.12 126.607 16.48C126.031 15.904 125.775 15.232 125.839 14.464C125.903 13.632 126.223 12.96 126.799 12.448C127.119 12.128 127.471 11.808 127.855 11.488C128.175 11.168 128.495 10.88 128.815 10.624C130.863 8.768 132.879 7.072 134.863 5.536C136.847 3.936 138.799 2.72 140.719 1.888C142.639 1.056 144.495 0.895998 146.287 1.408C147.375 1.664 148.143 2.112 148.591 2.752C149.103 3.328 149.391 3.84 149.455 4.288C150.031 5.696 149.903 7.2 149.071 8.8C148.239 10.336 147.183 12.032 145.903 13.888C145.775 14.016 145.615 14.24 145.423 14.56C145.295 14.816 145.135 15.072 144.943 15.328C145.903 14.944 147.151 14.464 148.687 13.888C150.223 13.312 152.079 12.608 154.255 11.776C155.087 11.52 155.855 11.584 156.559 11.968C157.263 12.288 157.743 12.832 157.999 13.6C158.319 14.304 158.287 15.04 157.903 15.808C157.583 16.512 157.071 17.024 156.367 17.344C154.319 18.048 152.463 18.688 150.799 19.264C149.135 19.84 147.727 20.352 146.575 20.8C145.935 21.056 145.359 21.28 144.847 21.472C144.399 21.6 143.983 21.728 143.599 21.856C143.151 21.984 142.767 22.112 142.447 22.24C142.127 22.304 141.807 22.336 141.487 22.336ZM162.836 30.688C162.388 30.688 161.94 30.624 161.492 30.496C161.044 30.432 160.596 30.368 160.148 30.304C158.996 29.984 158.196 29.312 157.748 28.288C157.172 27.008 157.172 25.472 157.748 23.68C158.388 21.824 159.412 19.456 160.82 16.576C161.076 16.064 161.332 15.488 161.588 14.848C161.908 14.208 162.196 13.6 162.452 13.024C161.62 13.344 160.724 13.888 159.764 14.656C158.868 15.36 157.94 16.096 156.98 16.864C156.34 17.312 155.636 17.504 154.868 17.44C154.036 17.312 153.364 16.96 152.852 16.384C152.404 15.744 152.244 15.04 152.372 14.272C152.436 13.504 152.756 12.832 153.332 12.256C154.228 11.616 155.156 10.912 156.116 10.144C157.14 9.376 158.164 8.736 159.188 8.224C161.812 6.88 164.212 6.528 166.388 7.168C167.412 7.36 168.18 8 168.692 9.088C169.204 10.112 169.172 11.392 168.596 12.928C168.084 14.464 167.188 16.544 165.908 19.168C165.588 19.936 165.236 20.704 164.852 21.472C164.532 22.24 164.212 22.976 163.892 23.68C163.828 23.936 163.732 24.16 163.604 24.352C163.54 24.544 163.476 24.736 163.412 24.928C164.756 24.736 166.708 24.064 169.268 22.912C171.892 21.696 175.412 19.328 179.828 15.808C182.196 13.952 184.34 12.16 186.26 10.432C188.18 8.64 189.716 7.168 190.868 6.016C192.02 4.864 192.596 4.288 192.596 4.288C193.364 3.392 194.292 3.104 195.38 3.424C195.892 3.488 196.308 3.712 196.628 4.096C196.948 4.416 197.204 4.736 197.396 5.056C197.844 5.952 197.876 7.008 197.492 8.224C197.172 9.376 196.468 11.264 195.38 13.888C194.996 14.72 194.612 15.552 194.228 16.384C193.908 17.216 193.588 17.984 193.268 18.688C193.204 18.944 193.14 19.168 193.076 19.36C193.076 19.488 193.044 19.616 192.98 19.744C194.196 19.552 195.476 19.04 196.82 18.208C198.228 17.312 199.572 16.32 200.852 15.232C202.196 14.144 203.316 13.216 204.212 12.448C204.852 11.872 205.556 11.616 206.324 11.68C207.092 11.744 207.764 12.064 208.34 12.64C208.852 13.28 209.076 13.984 209.012 14.752C209.012 15.52 208.692 16.192 208.052 16.768C206.068 18.496 204.02 20.128 201.908 21.664C199.86 23.2 197.78 24.352 195.668 25.12C193.62 25.824 191.54 25.92 189.428 25.408C188.404 24.96 187.668 24.32 187.22 23.488C186.836 22.592 186.708 21.6 186.836 20.512C187.028 19.424 187.412 18.08 187.988 16.48C187.284 17.12 186.548 17.728 185.78 18.304C185.076 18.88 184.308 19.52 183.476 20.224C174.644 27.2 167.764 30.688 162.836 30.688ZM239.946 24.256C239.498 24.256 239.082 24.192 238.698 24.064C237.482 23.808 236.618 23.072 236.106 21.856C235.722 20.768 235.818 19.552 236.394 18.208C237.034 16.864 237.866 15.36 238.89 13.696C239.274 13.12 239.626 12.544 239.946 11.968C240.33 11.328 240.65 10.752 240.906 10.24C241.034 10.048 241.13 9.888 241.194 9.76C241.258 9.568 241.322 9.408 241.386 9.28C239.466 8.96 237.226 8.896 234.666 9.088C232.17 9.216 229.354 9.696 226.218 10.528C223.466 11.232 220.49 12.16 217.29 13.312C214.154 14.4 210.826 15.712 207.306 17.248C206.602 17.504 205.898 17.504 205.194 17.248C204.49 16.992 203.978 16.512 203.658 15.808C203.274 15.104 203.242 14.368 203.562 13.6C203.882 12.768 204.394 12.224 205.098 11.968C208.682 10.368 212.106 8.992 215.37 7.84C218.698 6.624 221.834 5.664 224.778 4.96C232.65 2.976 239.082 2.656 244.074 4C245.546 4.384 246.57 5.28 247.146 6.688C247.722 8.096 247.594 9.664 246.762 11.392C245.93 13.12 244.938 14.912 243.786 16.768C243.722 16.896 243.626 17.056 243.498 17.248C243.37 17.44 243.242 17.664 243.114 17.92C244.586 17.6 246.762 16.96 249.642 16C252.522 15.04 256.49 13.632 261.546 11.776C262.25 11.52 262.954 11.584 263.658 11.968C264.426 12.288 264.938 12.832 265.194 13.6C265.514 14.304 265.514 15.04 265.194 15.808C264.874 16.512 264.298 17.024 263.466 17.344C260.522 18.368 257.834 19.296 255.402 20.128C252.97 20.96 250.794 21.664 248.874 22.24C246.314 23.008 244.362 23.552 243.018 23.872C241.674 24.128 240.65 24.256 239.946 24.256Z" fill="black"/>
</svg>
