<svg width="101" height="60" viewBox="0 0 101 60" fill="none" xmlns="http://www.w3.org/2000/svg">
<path d="M97.5313 15.6597L99.9782 2.09369C100.182 1.00382 99.3082 0 98.2013 0H52.4687H18.3585C17.7177 0 17.106 0.344168 16.7856 0.889101L0.240311 29.1109C-0.0801038 29.6558 -0.0801038 30.3442 0.240311 30.8891L16.7856 59.0822C17.106 59.6271 17.7177 59.9713 18.3585 59.9713H41.7492H52.4687H88.5887C89.4625 59.9713 90.2199 59.3403 90.3655 58.4799L92.8124 44.7419C93.0163 43.652 92.1424 42.6482 91.0355 42.6482H70.15C69.014 42.6482 68.1692 41.6444 68.3731 40.5258L68.6644 38.9771C68.81 38.1166 69.5674 37.5143 70.4413 37.5143H88.6469C89.5208 37.5143 90.2782 36.8834 90.4529 36.0229L92.5211 24.3499C92.725 23.26 91.8511 22.2562 90.7151 22.2562H73.7911C72.6551 22.2562 71.8103 21.2524 71.9851 20.1625L72.2473 18.6138C72.3929 17.7533 73.1503 17.1224 74.0533 17.1224H95.6962C96.6283 17.1511 97.3856 16.5201 97.5313 15.6597ZM22.3492 49.6463L11.3676 30.8891C11.0472 30.3442 11.0472 29.6558 11.3676 29.1109L22.3492 10.3537C22.6696 9.80879 23.2813 9.46463 23.9222 9.46463H45.9146C46.5555 9.46463 47.1672 9.80879 47.4876 10.3537L58.4692 29.1109C58.7897 29.6558 58.7897 30.3442 58.4692 30.8891L47.4876 49.6463C47.1672 50.1912 46.5555 50.5354 45.9146 50.5354H23.9222C23.2522 50.5354 22.6696 50.1912 22.3492 49.6463Z" fill="url(#paint0_linear_1_5)"/>
<defs>
<linearGradient id="paint0_linear_1_5" x1="9.24304" y1="29.9946" x2="210.416" y2="29.9946" gradientUnits="userSpaceOnUse">
<stop stop-color="#611E1E"/>
<stop offset="0.505208" stop-color="#851A87"/>
</linearGradient>
</defs>
</svg>
